<svg width="100" height="100" viewBox="0 0 100 100" fill="none" xmlns="http://www.w3.org/2000/svg">
<path d="M0 66.6071C0 64.1995 2.73017 62.7271 4.88933 63.7921C10.3508 66.486 16.4984 68 23 68H27C34.3812 68 41.3057 66.0477 47.2882 62.6337C48.5203 61.9305 50.0833 62.0833 51.0864 63.0864L57.5145 69.5145C58.6861 70.6861 58.6861 72.5855 57.5146 73.7571L50.5654 80.707C47.4412 83.8312 47.4412 88.8973 50.5654 92.0215L51.9795 93.4355C55.1037 96.5595 60.1688 96.5596 63.293 93.4355L70.2429 86.4856C71.4145 85.314 73.314 85.314 74.4856 86.4856L82.9967 94.9967C84.4945 96.4945 83.9921 99.019 81.9226 99.4709C80.3367 99.8173 78.6898 100 77 100H23C10.2975 100 2.25505e-07 89.7025 0 77V66.6071Z" fill="#8465FF"/>
<path d="M77 0C89.7025 1.03081e-06 100 10.2975 100 23V77C100 78.2201 99.9046 79.4178 99.721 80.5863C99.3826 82.7413 96.7865 83.3315 95.2441 81.789L63.6061 50.1511C62.6234 49.1683 62.4549 47.6447 63.1143 46.4214C66.2301 40.6406 68 34.0274 68 27V23C68 16.4986 66.4865 10.3508 63.7929 4.88934C62.7279 2.73015 64.2004 0 66.608 0H77Z" fill="#8465FF"/>
<path d="M27 0C39.7025 0 50 10.2975 50 23V27C50 39.7025 39.7025 50 27 50H23C10.2975 50 2.25505e-07 39.7025 0 27V23C1.03088e-06 10.2975 10.2975 2.2549e-07 23 0H27Z" fill="#8465FF"/>
</svg>
