<svg width="310" height="100" viewBox="0 0 310 100" fill="none" xmlns="http://www.w3.org/2000/svg">
<path d="M123.672 71V28.76H132.888V71H123.672ZM125.592 71V63.256H150.744V71H125.592ZM155.661 71V37.4H164.878V71H155.661ZM160.334 32.344C158.542 32.344 157.155 31.9813 156.174 31.256C155.235 30.488 154.766 29.3787 154.766 27.928C154.766 26.4347 155.235 25.304 156.174 24.536C157.155 23.768 158.542 23.384 160.334 23.384C162.168 23.384 163.555 23.768 164.494 24.536C165.475 25.304 165.966 26.4347 165.966 27.928C165.966 29.336 165.475 30.424 164.494 31.192C163.555 31.96 162.168 32.344 160.334 32.344ZM173.411 71V49.496V37.4H180.772V47.448H181.988C182.585 44.9733 183.374 42.9467 184.356 41.368C185.337 39.7467 186.51 38.5307 187.876 37.72C189.284 36.9093 190.926 36.504 192.804 36.504C194.809 36.504 196.473 36.952 197.796 37.848C199.118 38.744 200.142 40.0027 200.868 41.624C201.593 43.2027 202.062 45.144 202.276 47.448H203.3C203.94 44.9307 204.793 42.8613 205.86 41.24C206.969 39.6187 208.27 38.424 209.764 37.656C211.3 36.888 212.985 36.504 214.82 36.504C216.654 36.504 218.254 36.8667 219.62 37.592C221.028 38.3173 222.201 39.4053 223.14 40.856C224.078 42.264 224.782 44.056 225.252 46.232C225.721 48.3653 225.956 50.84 225.956 53.656V71H216.74V54.808C216.74 52.504 216.548 50.584 216.164 49.048C215.78 47.4693 215.182 46.296 214.372 45.528C213.561 44.76 212.516 44.376 211.236 44.376C209.828 44.376 208.612 44.8667 207.588 45.848C206.564 46.7867 205.753 48.088 205.156 49.752C204.558 51.416 204.238 53.3147 204.196 55.448V71H195.172V55.064C195.172 52.6747 194.958 50.712 194.532 49.176C194.105 47.5973 193.486 46.4027 192.676 45.592C191.865 44.7813 190.841 44.376 189.604 44.376C188.153 44.376 186.916 44.8667 185.892 45.848C184.868 46.7867 184.078 48.1093 183.524 49.816C182.969 51.5227 182.67 53.4213 182.628 55.512V71H173.411ZM254.326 71.896C252.193 71.896 250.337 71.4907 248.758 70.68C247.179 69.8267 245.899 68.6107 244.918 67.032C243.937 65.4533 243.254 63.5333 242.87 61.272H241.654L241.59 71H233.974V54.488V25.24H243.19V36.248C243.19 37.272 243.126 38.3813 242.998 39.576C242.87 40.728 242.678 41.9227 242.422 43.16C242.209 44.3973 241.974 45.6773 241.718 47H243.126C243.681 44.8667 244.427 43.032 245.366 41.496C246.347 39.9173 247.585 38.7227 249.078 37.912C250.571 37.0587 252.342 36.632 254.39 36.632C257.206 36.632 259.638 37.3573 261.686 38.808C263.734 40.2587 265.313 42.3067 266.422 44.952C267.574 47.5973 268.15 50.7333 268.15 54.36C268.15 57.9013 267.595 60.9947 266.486 63.64C265.377 66.2427 263.777 68.2693 261.686 69.72C259.638 71.1707 257.185 71.896 254.326 71.896ZM251.062 64.344C252.598 64.344 253.921 63.9387 255.03 63.128C256.139 62.2747 256.993 61.08 257.59 59.544C258.187 58.008 258.486 56.216 258.486 54.168C258.486 52.12 258.187 50.3493 257.59 48.856C257.035 47.3627 256.225 46.1893 255.158 45.336C254.091 44.4827 252.79 44.056 251.254 44.056C250.23 44.056 249.291 44.248 248.438 44.632C247.585 45.016 246.838 45.5493 246.198 46.232C245.558 46.872 245.003 47.6187 244.534 48.472C244.065 49.2827 243.723 50.136 243.51 51.032C243.297 51.928 243.19 52.7813 243.19 53.592V54.808C243.19 55.7893 243.339 56.856 243.638 58.008C243.937 59.1173 244.406 60.1627 245.046 61.144C245.729 62.0827 246.561 62.8507 247.542 63.448C248.523 64.0453 249.697 64.344 251.062 64.344ZM290.019 71.896C286.648 71.896 283.683 71.2347 281.123 69.912C278.563 68.5467 276.557 66.5627 275.107 63.96C273.656 61.3147 272.931 58.0293 272.931 54.104C272.931 50.1787 273.656 46.9147 275.107 44.312C276.6 41.7093 278.627 39.768 281.187 38.488C283.789 37.1653 286.733 36.504 290.019 36.504C293.389 36.504 296.355 37.1653 298.915 38.488C301.517 39.8107 303.544 41.7947 304.995 44.44C306.488 47.0427 307.235 50.3067 307.235 54.232C307.235 58.2 306.467 61.5067 304.931 64.152C303.437 66.7547 301.389 68.696 298.787 69.976C296.227 71.256 293.304 71.896 290.019 71.896ZM290.339 65.048C292.003 65.048 293.389 64.664 294.499 63.896C295.651 63.128 296.504 61.976 297.059 60.44C297.656 58.8613 297.955 56.9627 297.955 54.744C297.955 52.3973 297.635 50.4133 296.995 48.792C296.397 47.128 295.501 45.8693 294.307 45.016C293.112 44.12 291.597 43.672 289.763 43.672C288.184 43.672 286.819 44.056 285.667 44.824C284.515 45.5493 283.64 46.7013 283.043 48.28C282.445 49.816 282.147 51.7147 282.147 53.976C282.147 57.6027 282.872 60.3547 284.323 62.232C285.773 64.1093 287.779 65.048 290.339 65.048Z" fill="#8465FF"/>
<path d="M0 66.6071C0 64.1995 2.73017 62.7271 4.88933 63.7921C10.3508 66.486 16.4984 68 23 68H27C34.3812 68 41.3057 66.0477 47.2882 62.6337C48.5203 61.9305 50.0833 62.0833 51.0864 63.0864L57.5145 69.5145C58.6861 70.6861 58.6861 72.5855 57.5146 73.7571L50.5654 80.707C47.4412 83.8312 47.4412 88.8973 50.5654 92.0215L51.9795 93.4355C55.1037 96.5595 60.1688 96.5596 63.293 93.4355L70.2429 86.4856C71.4145 85.314 73.314 85.314 74.4856 86.4856L82.9967 94.9967C84.4945 96.4945 83.9921 99.019 81.9226 99.4709C80.3367 99.8173 78.6898 100 77 100H23C10.2975 100 2.25505e-07 89.7025 0 77V66.6071Z" fill="#8465FF"/>
<path d="M77 0C89.7025 1.03081e-06 100 10.2975 100 23V77C100 78.2201 99.9046 79.4178 99.721 80.5863C99.3826 82.7413 96.7865 83.3315 95.2441 81.789L63.6061 50.1511C62.6234 49.1683 62.4549 47.6447 63.1143 46.4214C66.2301 40.6406 68 34.0274 68 27V23C68 16.4986 66.4865 10.3508 63.7929 4.88934C62.7279 2.73015 64.2004 0 66.608 0H77Z" fill="#8465FF"/>
<path d="M27 0C39.7025 0 50 10.2975 50 23V27C50 39.7025 39.7025 50 27 50H23C10.2975 50 2.25505e-07 39.7025 0 27V23C1.03088e-06 10.2975 10.2975 2.2549e-07 23 0H27Z" fill="#8465FF"/>
</svg>
